<svg xmlns="http://www.w3.org/2000/svg" width="108" height="126" fill="none">
  <path d="M54 3l52 30v60l-52 30L2 93V33L54 3z" fill="#F2A616" fill-opacity=".12" stroke="#F2A616" stroke-width="4"/>
  <path d="M61.55 61.997a8.144 8.144 0 00-1.944-2.7l-.682-.626a.189.189 0 00-.304.078l-.305.874c-.19.548-.54 1.108-1.034 1.66a.146.146 0 01-.096.046.13.13 0 01-.1-.035.138.138 0 01-.047-.113c.086-1.41-.336-3.002-1.26-4.734-.763-1.44-1.825-2.562-3.151-3.345l-.968-.57a.188.188 0 00-.282.172l.052 1.125c.035.769-.054 1.448-.265 2.013a6.687 6.687 0 01-1.102 1.91c-.329.401-.702.764-1.113 1.08a8.265 8.265 0 00-2.35 2.849 8.15 8.15 0 00-.2 6.803 8.235 8.235 0 004.392 4.35 8.246 8.246 0 003.209.643 8.286 8.286 0 003.209-.64 8.17 8.17 0 002.622-1.751 8.114 8.114 0 002.419-5.787 8.067 8.067 0 00-.7-3.302z" fill="#F2A616"/>
</svg>
